<svg xmlns="http://www.w3.org/2000/svg" viewBox="0 0 254 117"><title>costsaving</title><path d="M176.45,39.21a1.67,1.67,0,0,0-2.78,1.85,3.87,3.87,0,0,1-.6,4.72,4.81,4.81,0,0,1-.87.76,12.26,12.26,0,0,0-2.11-5.43c-1.71-2.64-4.05-3.92-6.26-3.42a4.5,4.5,0,0,0-3.41,3.92c-.39,3,1.65,6,5.46,8a9,9,0,0,0,1.59.65,10.94,10.94,0,0,1-4.69,2.24l-.12,0a34.25,34.25,0,0,0-29.3-17l-.73-.08a9.52,9.52,0,0,0-18.34.26c-.91.07-1.82.1-2.75.25a13.29,13.29,0,0,0-11.71-6.93,13.87,13.87,0,0,0-4.7.79,3.34,3.34,0,0,0-2,4l2.53,9A34.22,34.22,0,0,0,84,60.13l-5.73,3a3.34,3.34,0,0,0-1.77,2.68,32.7,32.7,0,0,0,1.29,11.81A3.34,3.34,0,0,0,80,79.77l4.54,1.4a34.32,34.32,0,0,0,12.08,16.3l.48,8.16A3.34,3.34,0,0,0,98.3,108a8.56,8.56,0,0,0,5.34,1.7,12.08,12.08,0,0,0,4.78-1,3.34,3.34,0,0,0,1.89-2.16l.81-2.89a33.44,33.44,0,0,0,5.73.5s3.7.07,7.82.07,8.52-.07,8.52-.07h0a33.4,33.4,0,0,0,6.16-.58l.84,3a3.34,3.34,0,0,0,1.79,2.12,11.91,11.91,0,0,0,5.07,1.21,8.47,8.47,0,0,0,5.08-1.55,3.34,3.34,0,0,0,1.28-2.37l.72-9a34.1,34.1,0,0,0,10.11-41.32c1.7-.47,5.6-1.86,7.25-5.14A7.72,7.72,0,0,0,175.56,48,7.13,7.13,0,0,0,176.45,39.21ZM123.51,32a6.24,6.24,0,1,1-6.24,6.24A6.25,6.25,0,0,1,123.51,32Zm27.42,63.1-.84,10.53a5.2,5.2,0,0,1-3,.84,8.56,8.56,0,0,1-3.65-.89l-1.71-6.06a30.77,30.77,0,0,1-8.56,1.23s-4.36.07-8.46.07-7.82-.07-7.82-.07a30.85,30.85,0,0,1-8.09-1.11l-1.66,5.93a8.72,8.72,0,0,1-3.46.78,5.3,5.3,0,0,1-3.21-.93l-.57-9.77A31,31,0,0,1,87.18,78.5L81,76.58A29.31,29.31,0,0,1,79.84,66.1l7-3.69A31,31,0,0,1,99.52,44.22L96.36,33a10.53,10.53,0,0,1,3.48-.57c3,0,7.24,1.24,9.89,7.35a30.21,30.21,0,0,1,4.28-.64,9.51,9.51,0,0,0,3.15,6.26c-1.66.1-2.66.21-2.78.22a1.65,1.65,0,1,0,.35,3.28,103.35,103.35,0,0,1,20.22.23h.19a1.65,1.65,0,0,0,.19-3.29c-1.88-.22-3.71-.36-5.46-.46A9.51,9.51,0,0,0,133,38.89h.1a30.91,30.91,0,0,1,17.79,56.2Zm16.51-48.46c-3-1.56-3.86-3.4-3.7-4.61a1.19,1.19,0,0,1,.83-1.1l.21,0c.61,0,1.56.51,2.52,2a8.43,8.43,0,0,1,1.6,4.27A5.63,5.63,0,0,1,167.43,46.65Z" style="fill:#fff"/><path d="M97.29,53.61c-1.54,0-2.75,1.53-2.75,3.49s1.21,3.5,2.75,3.5S100,59.06,100,57.1,98.82,53.61,97.29,53.61Z" style="fill:#fff"/><path d="M135,78.88a8.8,8.8,0,0,0-2.74-2.58,12.26,12.26,0,0,0-4.1-1.55V61.94a5,5,0,0,1,1.42.67,8.08,8.08,0,0,1,1.75,1.58,5.9,5.9,0,0,1,1,1.87,8.77,8.77,0,0,1,.44,2.08,1.48,1.48,0,0,0,1.68,1.45c.38,0,1.29-.3,1.56-1.8a9,9,0,0,0-2.52-6.39,9.94,9.94,0,0,0-5.37-2.69v-2.1a1.8,1.8,0,0,0-.66-1.45,1.91,1.91,0,0,0-2.55.05,1.86,1.86,0,0,0-.56,1.4v1.88a13.86,13.86,0,0,0-3.77.82,10.34,10.34,0,0,0-3.54,2.16,9,9,0,0,0-2.17,3.21,8.47,8.47,0,0,0-.55,3.93,9.16,9.16,0,0,0,3.16,6.16,12.5,12.5,0,0,0,6.86,2.66V89.67a10.17,10.17,0,0,1-5.34-1.72,6.66,6.66,0,0,1-2.63-3.86,1.62,1.62,0,0,0-1.71-1.38,1.44,1.44,0,0,0-1.27.47,1.4,1.4,0,0,0-.26,1.27,9,9,0,0,0,4.13,6.19,15.19,15.19,0,0,0,7.09,2.18v1.75A1.85,1.85,0,0,0,125,96a1.87,1.87,0,0,0,1.25.48,2.06,2.06,0,0,0,1.27-.46,1.78,1.78,0,0,0,.65-1.45V92.77a9.17,9.17,0,0,0,5.92-2.63,8.41,8.41,0,0,0,2.31-5.1,10.84,10.84,0,0,0-.16-3.05A8.59,8.59,0,0,0,135,78.88ZM130.43,89a6.84,6.84,0,0,1-2.24.66V78a7.3,7.3,0,0,1,3.68,2,7,7,0,0,1,1.34,4.88v0a4.26,4.26,0,0,1-.24,1.2,4.5,4.5,0,0,1-.82,1.47A5.55,5.55,0,0,1,130.43,89ZM117.81,68.47a6,6,0,0,1,1.77-4.72,7.58,7.58,0,0,1,4.84-2.1V74.23a10.23,10.23,0,0,1-2.88-.87,9.24,9.24,0,0,1-2.24-1.52,4.29,4.29,0,0,1-1.08-1.59A7,7,0,0,1,117.81,68.47Z" style="fill:#fff"/><path d="M136.32,25.89a5.53,5.53,0,1,0-5.52-5.53A5.53,5.53,0,0,0,136.32,25.89Zm0-7.72a2.19,2.19,0,1,1-2.19,2.19A2.19,2.19,0,0,1,136.32,18.17Z" style="fill:#fff"/><path d="M118.7,22.11a7.47,7.47,0,1,0-7.47-7.47A7.47,7.47,0,0,0,118.7,22.11Zm0-11.59a4.13,4.13,0,1,1-4.13,4.13A4.13,4.13,0,0,1,118.7,10.52Z" style="fill:#fff"/></svg>