<svg xmlns="http://www.w3.org/2000/svg" viewBox="0 0 254 117"><title>efficiency</title><path d="M117.37,84A15.79,15.79,0,1,1,128.43,57a1.47,1.47,0,0,1-2.06,2.1,12.86,12.86,0,1,0,3.86,9.18,12.92,12.92,0,0,0-.59-3.87,1.47,1.47,0,1,1,2.8-.88A15.81,15.81,0,0,1,117.37,84Z" style="fill:#fff"/><path d="M117.37,96.18A28,28,0,1,1,137,48.35a1.47,1.47,0,0,1-2.06,2.09,24.94,24.94,0,1,0,4.41,5.86,1.47,1.47,0,0,1,2.58-1.4,28,28,0,0,1-24.57,41.29Z" style="fill:#fff"/><path d="M117.37,107.58A39.35,39.35,0,1,1,145.1,40.31,1.47,1.47,0,0,1,143,42.39a36.37,36.37,0,1,0,4.47,5.39,1.47,1.47,0,0,1,2.43-1.65,39.36,39.36,0,0,1-32.56,61.45Z" style="fill:#fff"/><path d="M117.26,69.61a1.47,1.47,0,0,1-1-2.51l30.7-30.7A1.47,1.47,0,1,1,149,38.48l-30.7,30.7A1.46,1.46,0,0,1,117.26,69.61Z" style="fill:#fff"/><path d="M160.08,41.21a1.47,1.47,0,0,1-1-2.51l14.43-14.43a1.47,1.47,0,1,1,2.08,2.08L161.12,40.78A1.47,1.47,0,0,1,160.08,41.21Z" style="fill:#fff"/><path d="M174.51,26.78l-.28,0-12.12-2.3a1.47,1.47,0,0,1,.55-2.88l12.12,2.3a1.47,1.47,0,0,1-.27,2.91Z" style="fill:#fff"/><path d="M162.39,24.48a1.47,1.47,0,0,1-1.44-1.19l-2.31-12.12a1.47,1.47,0,1,1,2.88-.55l2.31,12.13a1.47,1.47,0,0,1-1.17,1.72Z" style="fill:#fff"/><path d="M145.65,26.78a1.47,1.47,0,0,1-1-2.51L159,9.85a1.47,1.47,0,0,1,2.08,2.08L146.69,26.35A1.47,1.47,0,0,1,145.65,26.78Z" style="fill:#fff"/><path d="M160.08,41.21l-.28,0-13.1-2.49-2.49-13.11A1.47,1.47,0,1,1,147.1,25l2.12,11.14,11.14,2.12a1.47,1.47,0,0,1-.27,2.91Z" style="fill:#fff"/><circle cx="117.26" cy="68.14" r="4.22" style="fill:#fff"/></svg>