<svg id="Layer_1" data-name="Layer 1" xmlns="http://www.w3.org/2000/svg" viewBox="0 0 254 117"><defs><style>.cls-1{fill:#fff;}</style></defs><title>resources</title><path class="cls-1" d="M123.23,95.48a41.09,41.09,0,1,1,41.09-41.09A41.14,41.14,0,0,1,123.23,95.48Zm0-79.77a38.68,38.68,0,1,0,38.68,38.68A38.73,38.73,0,0,0,123.23,15.7Z"/><rect class="cls-1" x="161.47" y="79.06" width="2.41" height="31.02" transform="translate(-18.9 143.95) rotate(-45.38)"/><path class="cls-1" d="M106.88,60a2.52,2.52,0,0,1,1.75-2.35l8.63-3.6v5.16a1.16,1.16,0,0,0,1.54,1.1L124,58.49,129,60.27a1.15,1.15,0,0,0,1-.13,1.17,1.17,0,0,0,.51-.93l.13-5.05,6.94,3.54a8.56,8.56,0,0,1,3.29,1.95L141,73.51h2.49V60c0-2-2.57-3.7-4.9-4.55l-7.84-4V50a11.9,11.9,0,1,0-13.5,0v1.32l-9.51,4A5,5,0,0,0,104.42,60V73.51h2.47Zm7.71-19.69A9.43,9.43,0,1,1,129.36,48a3.73,3.73,0,0,1-.43.24l-.65.36,0,1,0,0-.13,7.67L124.34,56a1.19,1.19,0,0,0-.76,0l-3.84,1.34V49.67h0v-1l-.57-.34c-.19-.11-.39-.22-.56-.35A9.46,9.46,0,0,1,114.6,40.28Z"/></svg>