<svg id="Layer_1" data-name="Layer 1" xmlns="http://www.w3.org/2000/svg" viewBox="0 0 254 117"><defs><style>.cls-1{fill:#fff;}</style></defs><title>widespread</title><path class="cls-1" d="M127.35,47.15a11.12,11.12,0,1,0,11.12,11.12A11.14,11.14,0,0,0,127.35,47.15Zm-9.41,11.12a9.41,9.41,0,1,1,9.41,9.41A9.42,9.42,0,0,1,117.94,58.27Z"/><path class="cls-1" d="M123.43,22.5a.86.86,0,0,0,.61-.26l2.45-2.51v9.9a.86.86,0,1,0,1.72,0V19.76l2.46,2.41a.86.86,0,1,0,1.2-1.23l-3.49-3.41a1.51,1.51,0,0,0-.85-.41l-.18,0h0a1.52,1.52,0,0,0-1.1.46L122.81,21a.86.86,0,0,0,.61,1.46Z"/><path class="cls-1" d="M127.35,36.48a.86.86,0,0,0-.86.86V44a.86.86,0,0,0,1.72,0V37.34A.86.86,0,0,0,127.35,36.48Z"/><path class="cls-1" d="M130.67,95.09l-2.46,2.41V87.62a.86.86,0,1,0-1.72,0v9.9L124,95a.86.86,0,1,0-1.23,1.2l3.41,3.49a1.52,1.52,0,0,0,1.09.46h0l.19,0a1.51,1.51,0,0,0,.85-.41l3.49-3.41a.86.86,0,1,0-1.2-1.23Z"/><path class="cls-1" d="M127.35,80.77a.86.86,0,0,0,.86-.86V73.23a.86.86,0,1,0-1.72,0v6.68A.86.86,0,0,0,127.35,80.77Z"/><path class="cls-1" d="M168.88,58.6s0,0,0,0a1.51,1.51,0,0,0-.46-1.07l-3.49-3.41a.86.86,0,1,0-1.2,1.23l2.5,2.45h-9.9a.86.86,0,1,0,0,1.72h9.88l-2.41,2.46a.86.86,0,1,0,1.23,1.2l3.41-3.49a1.51,1.51,0,0,0,.42-.85.86.86,0,0,0,0-.18Z"/><path class="cls-1" d="M142,57.77a.86.86,0,0,0,0,1.72h6.68a.86.86,0,1,0,0-1.72Z"/><path class="cls-1" d="M88.48,59.49h9.88a.86.86,0,1,0,0-1.72h-9.9L91,55.32a.86.86,0,0,0-1.2-1.23L86.28,57.5a1.52,1.52,0,0,0-.46,1.1v0a.86.86,0,0,0,0,.18,1.51,1.51,0,0,0,.41.85l3.41,3.49a.86.86,0,0,0,1.23-1.2Z"/><path class="cls-1" d="M106.07,57.77a.86.86,0,1,0,0,1.72h6.68a.86.86,0,1,0,0-1.72Z"/><path class="cls-1" d="M147.85,39a.86.86,0,0,0,.61-.25l7-7,0,3.45a.86.86,0,0,0,.86.85h0a.86.86,0,0,0,.85-.87l-.05-4.88a1.51,1.51,0,0,0-.31-.9.86.86,0,0,0-.11-.14h0l0,0a1.52,1.52,0,0,0-1.07-.44h0l-4.88.05a.86.86,0,0,0,0,1.72h0l3.5,0-7,7a.86.86,0,0,0,.61,1.47Z"/><path class="cls-1" d="M137.68,49.16a.86.86,0,0,0,.61-.25L143,44.18A.86.86,0,1,0,141.79,43l-4.72,4.72a.86.86,0,0,0,.61,1.47Z"/><path class="cls-1" d="M106.24,78.52l-7,7,0-3.5a.86.86,0,0,0-.85-.87h0a.86.86,0,0,0-.86.85l-.05,4.88A1.52,1.52,0,0,0,98,88l0,0,.14.11a1.51,1.51,0,0,0,.9.31l4.88.05h0a.86.86,0,0,0,0-1.72l-3.45,0,7-7a.86.86,0,0,0-1.21-1.21Z"/><path class="cls-1" d="M116.42,68.35l-4.72,4.72a.86.86,0,1,0,1.21,1.21l4.72-4.72a.86.86,0,1,0-1.21-1.21Z"/><path class="cls-1" d="M156.28,81.15h0a.86.86,0,0,0-.85.87l0,3.5-7-7a.86.86,0,1,0-1.21,1.21l7,7-3.45,0a.86.86,0,0,0,0,1.72h0l4.88-.05a1.51,1.51,0,0,0,.9-.31l.14-.11,0,0a1.52,1.52,0,0,0,.46-1.1L157.14,82A.86.86,0,0,0,156.28,81.15Z"/><path class="cls-1" d="M138.29,68.35a.86.86,0,0,0-1.21,1.21l4.72,4.72A.86.86,0,0,0,143,73.07Z"/><path class="cls-1" d="M98.36,36h0a.86.86,0,0,0,.86-.85l0-3.45,7,7a.86.86,0,1,0,1.21-1.21l-7-7,3.5,0h0a.86.86,0,0,0,0-1.72l-4.88-.05a1.5,1.5,0,0,0-1.12.47h0l0,0a1.53,1.53,0,0,0-.39,1l-.05,4.88A.86.86,0,0,0,98.36,36Z"/><path class="cls-1" d="M116.42,48.91a.86.86,0,0,0,1.21-1.21L112.91,43a.86.86,0,1,0-1.21,1.21Z"/></svg>